#N canvas 400 392 551 387 10;
#X obj 103 103 cnv 15 130 40 empty empty eSeq_\$1 0 6 0 9 -261682 -66577
0;
#X floatatom 175 127 3 0 0 2 off #1-offset-set #1-offset, f 3;
#X floatatom 206 127 3 0 0 2 len #1-length-set #1-length, f 3;
#X obj 63 187 inlet;
#X obj 442 24 inlet;
#X obj 348 21 inlet;
#X obj 63 207 f 0;
#X obj 63 227 + 1;
#X obj 265 22 inlet;
#X text 62 168 clock;
#X floatatom 20 231 5 0 0 0 - - -, f 5;
#X obj 92 227 sel 0;
#X obj 92 207 % 16;
#X obj 52 285 bng 15 250 50 0 empty empty empty 17 7 0 10 -262144 -1
-1;
#X obj 97 275 outlet;
#X floatatom 143 127 3 0 0 2 hits #1-hits-set #1-hits, f 3;
#X obj 315 162 setctl \$1-hits;
#X obj 315 180 setctl \$1-offset;
#X obj 315 198 setctl \$1-length;
#X obj 266 42 s \$1-hits;
#X obj 348 41 s \$1-offset;
#X obj 442 44 s \$1-length;
#X obj 167 190 r \$1-hits;
#X obj 167 211 r \$1-offset;
#X obj 168 231 r \$1-length;
#X obj 116 126 bng 15 250 50 0 empty go reset -14 -5 0 9 -262144 -1
-1;
#X msg 116 172 0;
#X obj 97 255 euclidR;
#X text 32 29 h=1 l=8 hits twice in 1 measure;
#X text 32 42 h=1 l=16 hits once in 1 measure;
#N canvas 798 113 632 468 copyrightInfo 0;
#X text 74 306 j.raski@gmail.com;
#X text 43 19 This program creates generative music on an Elektron
Digitakt. Copyright (C) 2019 Jerry Z. Raski This program is free software:
you can redistribute it and/or modify it under the terms of the GNU
General Public License as published by the Free Software Foundation
\, either version 3 of the License \, or (at your option) any later
version. This program is distributed in the hope that it will be useful
\, but WITHOUT ANY WARRANTY \; without even the implied warranty of
MERCHANTABILITY or FITNESS FOR A PARTICULAR PURPOSE. See the GNU General
Public License for more details. You should have received a copy of
the GNU General Public License along with this program. If not \, see
<https://www.gnu.org/licenses/>.;
#X restore 18 358 pd copyrightInfo;
#X connect 3 0 6 0;
#X connect 4 0 21 0;
#X connect 5 0 20 0;
#X connect 6 0 7 0;
#X connect 6 0 10 0;
#X connect 6 0 27 0;
#X connect 7 0 12 0;
#X connect 8 0 19 0;
#X connect 12 0 6 1;
#X connect 12 0 11 0;
#X connect 22 0 27 1;
#X connect 23 0 27 2;
#X connect 24 0 12 1;
#X connect 24 0 27 3;
#X connect 25 0 26 0;
#X connect 26 0 6 1;
#X connect 27 0 14 0;
#X connect 27 0 13 0;
#X coords 0 -1 1 1 135 45 1 100 100;
