#N canvas 1364 57 358 268 12;
#X obj 49 42 inlet;
#X obj 167 103 inlet;
#X obj 111 67 inlet;
#X obj 49 163 select 1;
#X obj 49 184 outlet;
#X obj 215 145 inlet;
#X obj 49 86 +;
#X obj 49 105 *;
#X obj 49 124 %;
#X obj 49 144 <;
#X text 99 50 hits per bar;
#X text 165 86 offset in bar;
#X text 210 128 length of bar;
#X text 22 25 plc in bar;
#X connect 0 0 6 0;
#X connect 1 0 6 1;
#X connect 2 0 7 1;
#X connect 2 0 9 1;
#X connect 3 0 4 0;
#X connect 5 0 8 1;
#X connect 6 0 7 0;
#X connect 7 0 8 0;
#X connect 8 0 9 0;
#X connect 9 0 3 0;
